{
  "accessors": [
    {
      "bufferView": 0,
      "componentType": 5126,
      "count": 672,
      "type": "VEC3",
      "max": [
        -0.011823632754385471,
        0.55037182569503784,
        0.014999962411820889
      ],
      "min": [
        -0.040945649147033691,
        -0.29420334100723267,
        -1.1889286041259766
      ]
    },
    {
      "bufferView": 1,
      "componentType": 5126,
      "count": 672,
      "type": "VEC3",
      "max": [
        0.99835109710693359,
        1.0,
        1.0
      ],
      "min": [
        -0.99835109710693359,
        -1.0,
        -1.0
      ]
    },
    {
      "bufferView": 2,
      "componentType": 5126,
      "count": 672,
      "type": "VEC4",
      "max": [
        1.0,
        1.0,
        0.99886763095855713,
        -1.0
      ],
      "min": [
        -0.84375786781311035,
        -1.0,
        -1.0,
        -1.0
      ]
    },
    {
      "bufferView": 3,
      "componentType": 5126,
      "count": 672,
      "type": "VEC2",
      "max": [
        0.96336525678634644,
        0.97999995946884155
      ],
      "min": [
        0.019999999552965164,
        0.019999999552965164
      ]
    },
    {
      "bufferView": 4,
      "componentType": 5126,
      "count": 672,
      "type": "VEC2",
      "max": [
        0.96336525678634644,
        0.97999995946884155
      ],
      "min": [
        0.019999999552965164,
        0.019999999552965164
      ]
    },
    {
      "bufferView": 5,
      "componentType": 5125,
      "count": 1584,
      "type": "SCALAR",
      "max": [
        671.0
      ],
      "min": [
        0.0
      ]
    },
    {
      "bufferView": 6,
      "componentType": 5126,
      "count": 332,
      "type": "VEC3",
      "max": [
        0.5,
        0.60000002384185791,
        1.8999999761581421
      ],
      "min": [
        -0.5,
        -0.60000002384185791,
        0.0
      ]
    },
    {
      "bufferView": 7,
      "componentType": 5126,
      "count": 332,
      "type": "VEC3",
      "max": [
        1.0,
        1.0,
        1.0
      ],
      "min": [
        -1.0,
        -1.0,
        -1.0
      ]
    },
    {
      "bufferView": 8,
      "componentType": 5126,
      "count": 332,
      "type": "VEC4",
      "max": [
        1.0,
        1.0,
        1.0,
        -1.0
      ],
      "min": [
        -1.0,
        -1.0,
        -1.0,
        -1.0
      ]
    },
    {
      "bufferView": 9,
      "componentType": 5126,
      "count": 332,
      "type": "VEC2",
      "max": [
        0.9460139274597168,
        0.949999988079071
      ],
      "min": [
        0.05000000074505806,
        0.05000000074505806
      ]
    },
    {
      "bufferView": 10,
      "componentType": 5126,
      "count": 332,
      "type": "VEC2",
      "max": [
        0.949999988079071,
        0.9059259295463562
      ],
      "min": [
        0.05000000074505806,
        0.05000000074505806
      ]
    },
    {
      "bufferView": 11,
      "componentType": 5125,
      "count": 582,
      "type": "SCALAR",
      "max": [
        331.0
      ],
      "min": [
        0.0
      ]
    }
  ],
  "asset": {
    "generator": "UnityGLTF (2019.2.2f1)",
    "version": "2.0"
  },
  "buffers": [
    {
      "uri": "Unity2Skfb.bin",
      "byteLength": 64888
    }
  ],
  "bufferViews": [
    {
      "buffer": 0,
      "byteLength": 8064
    },
    {
      "buffer": 0,
      "byteOffset": 8064,
      "byteLength": 8064
    },
    {
      "buffer": 0,
      "byteOffset": 16128,
      "byteLength": 10752
    },
    {
      "buffer": 0,
      "byteOffset": 26880,
      "byteLength": 5376
    },
    {
      "buffer": 0,
      "byteOffset": 32256,
      "byteLength": 5376
    },
    {
      "buffer": 0,
      "byteOffset": 37632,
      "byteLength": 6336
    },
    {
      "buffer": 0,
      "byteOffset": 43968,
      "byteLength": 3984
    },
    {
      "buffer": 0,
      "byteOffset": 47952,
      "byteLength": 3984
    },
    {
      "buffer": 0,
      "byteOffset": 51936,
      "byteLength": 5312
    },
    {
      "buffer": 0,
      "byteOffset": 57248,
      "byteLength": 2656
    },
    {
      "buffer": 0,
      "byteOffset": 59904,
      "byteLength": 2656
    },
    {
      "buffer": 0,
      "byteOffset": 62560,
      "byteLength": 2328
    }
  ],
  "images": [
    {
      "uri": "14066_M_Refrigerator_chrome _Normal.jpg",
      "name": "M_Refrigerator_chrome _Normal"
    },
    {
      "uri": "17054_M_Refrigerator_chrome _Base_Color.jpg",
      "name": "M_Refrigerator_chrome _Base_Color"
    },
    {
      "uri": "14070_M_Refrigerator_chrome _Metallic.png",
      "name": "M_Refrigerator_chrome _Metallic"
    },
    {
      "uri": "14074_M_Refrigerator_Steel _Normal.jpg",
      "name": "M_Refrigerator_Steel _Normal"
    },
    {
      "uri": "17038_M_Refrigerator_Steel _Base_Color.jpg",
      "name": "M_Refrigerator_Steel _Base_Color"
    },
    {
      "uri": "14078_M_Refrigerator_Steel _Metallic.png",
      "name": "M_Refrigerator_Steel _Metallic"
    }
  ],
  "materials": [
    {
      "pbrMetallicRoughness": {
        "baseColorTexture": {
          "index": 1
        },
        "metallicFactor": 0.0,
        "roughnessFactor": 0.5,
        "metallicRoughnessTexture": {
          "index": 2
        }
      },
      "normalTexture": {
        "index": 0
      },
      "occlusionTexture": {
        "index": 2
      },
      "name": "1"
    },
    {
      "pbrMetallicRoughness": {
        "baseColorTexture": {
          "index": 4
        },
        "metallicFactor": 0.0,
        "roughnessFactor": 0.5,
        "metallicRoughnessTexture": {
          "index": 5
        }
      },
      "normalTexture": {
        "index": 3
      },
      "occlusionTexture": {
        "index": 5
      },
      "name": "2"
    }
  ],
  "meshes": [
    {
      "primitives": [
        {
          "attributes": {
            "POSITION": 0,
            "NORMAL": 1,
            "TANGENT": 2,
            "TEXCOORD_0": 3,
            "TEXCOORD_1": 4
          },
          "indices": 5,
          "material": 0
        }
      ],
      "name": "Line005"
    },
    {
      "primitives": [
        {
          "attributes": {
            "POSITION": 6,
            "NORMAL": 7,
            "TANGENT": 8,
            "TEXCOORD_0": 9,
            "TEXCOORD_1": 10
          },
          "indices": 11,
          "material": 1
        }
      ],
      "name": "Object003"
    }
  ],
  "nodes": [
    {
      "rotation": [
        0.0,
        0.0,
        0.0,
        -1.0
      ],
      "translation": [
        0.0,
        1.0,
        10.0
      ],
      "name": "Main Camera"
    },
    {
      "children": [
        2,
        3,
        4
      ],
      "rotation": [
        -0.7071068,
        0.0,
        0.0,
        -0.7071068
      ],
      "scale": [
        1.0,
        1.00000024,
        1.00000024
      ],
      "name": "Refrigerator1"
    },
    {
      "mesh": 0,
      "rotation": [
        1.0,
        0.0,
        0.0,
        2.82129974E-07
      ],
      "translation": [
        -0.4698293,
        0.12990585,
        0.451296329
      ],
      "name": "Line005"
    },
    {
      "rotation": [
        0.0,
        0.0,
        0.0,
        -1.0
      ],
      "translation": [
        0.0249989927,
        -0.0166010857,
        0.95
      ],
      "name": "Object001"
    },
    {
      "mesh": 1,
      "rotation": [
        0.0,
        0.0,
        0.0,
        -1.0
      ],
      "translation": [
        0.01077494,
        0.0,
        0.95
      ],
      "name": "Object003"
    },
    {
      "rotation": [
        0.408217877,
        -0.234569684,
        -0.109381631,
        -0.8754261
      ],
      "scale": [
        1.0,
        1.0,
        0.99999994
      ],
      "translation": [
        0.0,
        3.0,
        0.0
      ],
      "name": "Directional Light"
    }
  ],
  "samplers": [
    {
      "minFilter": 9729
    }
  ],
  "scene": 0,
  "scenes": [
    {
      "nodes": [
        0,
        1,
        5
      ],
      "name": "Unity2Skfb"
    }
  ],
  "textures": [
    {
      "sampler": 0,
      "source": 0,
      "name": "M_Refrigerator_chrome _Normal"
    },
    {
      "sampler": 0,
      "source": 1,
      "name": "M_Refrigerator_chrome _Base_Color"
    },
    {
      "sampler": 0,
      "source": 2,
      "name": "M_Refrigerator_chrome _Metallic"
    },
    {
      "sampler": 0,
      "source": 3,
      "name": "M_Refrigerator_Steel _Normal"
    },
    {
      "sampler": 0,
      "source": 4,
      "name": "M_Refrigerator_Steel _Base_Color"
    },
    {
      "sampler": 0,
      "source": 5,
      "name": "M_Refrigerator_Steel _Metallic"
    }
  ]
}